# xmcd CD database file
#
# Track frame offsets:
#	150
#	9881
#	19464
#	30211
#	40866
#	50982
#	62607
#	73438
#	84822
#	95839
#	109293
#	120042
#	128314
#	137171
#	144947
#
# Disc length: 2065 seconds
#
# Revision: 0
# Processed by: cddbd v1.5.2PL0 Copyright (c) Steve Scherf et al.
# Submitted via: CDex 1.50
#
DISCID=c1080f0f
DTITLE=Perez Prado - Legends CD3
DYEAR=2005
DGENRE=Jazz
TTITLE0=Patricia
TTITLE1=Bacoa
TTITLE2=Mambo Jambo (Que Rico El Mambo)
TTITLE3=Estrellita Del Sur
TTITLE4=Ida, Sweet As Apple Cider
TTITLE5=In A Little Spanish Town
TTITLE6=The Freeway Mambo
TTITLE7=Machaca
TTITLE8=Paris
TTITLE9=Marta
TTITLE10=La Rubia
TTITLE11=Isle of Capria
TTITLE12=One Night
TTITLE13=Taking A Chance On Love
TTITLE14=Why Wait
EXTD=YEAR: 2005
EXTT0=
EXTT1=
EXTT2=
EXTT3=
EXTT4=
EXTT5=
EXTT6=
EXTT7=
EXTT8=
EXTT9=
EXTT10=
EXTT11=
EXTT12=
EXTT13=
EXTT14=
PLAYORDER=
